v 0.857915 1.035175 0.000000
v 0.815926 1.035175 0.265110
v 0.694068 1.035175 0.504269
v 0.504269 1.035175 0.694068
v 0.265110 1.035175 0.815926
v 0.000000 1.035175 0.857915
v -0.265110 1.035175 0.815926
v -0.504269 1.035175 0.694068
v -0.694068 1.035175 0.504269
v -0.815926 1.035175 0.265110
v -0.857915 1.035175 0.000000
v -0.815926 1.035175 -0.265110
v -0.694068 1.035175 -0.504269
v -0.504269 1.035175 -0.694068
v -0.265110 1.035175 -0.815926
v 0.000000 1.035175 -0.857915
v 0.265110 1.035175 -0.815926
v 0.504269 1.035175 -0.694068
v 0.694068 1.035175 -0.504269
v 0.815926 1.035175 -0.265110
v 0.857915 -1.035175 0.000000
v 0.815926 -1.035175 0.265110
v 0.694068 -1.035175 0.504269
v 0.504269 -1.035175 0.694068
v 0.265110 -1.035175 0.815926
v 0.000000 -1.035175 0.857915
v -0.265110 -1.035175 0.815926
v -0.504269 -1.035175 0.694068
v -0.694068 -1.035175 0.504269
v -0.815926 -1.035175 0.265110
v -0.857915 -1.035175 0.000000
v -0.815926 -1.035175 -0.265110
v -0.694068 -1.035175 -0.504269
v -0.504269 -1.035175 -0.694068
v -0.265110 -1.035175 -0.815926
v 0.000000 -1.035175 -0.857915
v 0.265110 -1.035175 -0.815926
v 0.504269 -1.035175 -0.694068
v 0.694068 -1.035175 -0.504269
v 0.815926 -1.035175 -0.265110
f 1 2 22 21
f 2 3 23 22
f 3 4 24 23
f 4 5 25 24
f 5 6 26 25
f 6 7 27 26
f 7 8 28 27
f 8 9 29 28
f 9 10 30 29
f 10 11 31 30
f 11 12 32 31
f 12 13 33 32
f 13 14 34 33
f 14 15 35 34
f 15 16 36 35
f 16 17 37 36
f 17 18 38 37
f 18 19 39 38
f 19 20 40 39
f 20 1 21 40
f 22 23 24 25 26 27 28 29 30 31 32 33 34 35 36 37 38 39 40 21
f 3 2 1 20 19 18 17 16 15 14 13 12 11 10 9 8 7 6 5 4
