v 0.000000 1.018323 0.000000
v 0.254581 0.881868 0.440934
v 0.509162 0.881868 0.000000
v 0.440934 0.509162 0.763743
v 0.881868 0.509162 0.000000
v 0.509162 0.000000 0.881868
v 1.018323 0.000000 0.000000
v 0.440934 -0.509162 0.763743
v 0.881868 -0.509162 0.000000
v 0.254581 -0.881868 0.440934
v 0.509162 -0.881868 0.000000
v 0.000000 -1.018323 0.000000
v -0.254581 0.881868 0.440934
v -0.440934 0.509162 0.763743
v -0.509162 0.000000 0.881868
v -0.440934 -0.509162 0.763743
v -0.254581 -0.881868 0.440934
v -0.509162 0.881868 0.000000
v -0.881868 0.509162 0.000000
v -1.018323 0.000000 0.000000
v -0.881868 -0.509162 0.000000
v -0.509162 -0.881868 0.000000
v -0.254581 0.881868 -0.440934
v -0.440934 0.509162 -0.763743
v -0.509162 0.000000 -0.881868
v -0.440934 -0.509162 -0.763743
v -0.254581 -0.881868 -0.440934
v 0.254581 0.881868 -0.440934
v 0.440934 0.509162 -0.763743
v 0.509162 0.000000 -0.881868
v 0.440934 -0.509162 -0.763743
v 0.254581 -0.881868 -0.440934
f 1 2 3
f 3 2 4 5
f 5 4 6 7
f 7 6 8 9
f 9 8 10 11
f 11 10 12
f 1 13 2
f 2 13 14 4
f 4 14 15 6
f 6 15 16 8
f 8 16 17 10
f 10 17 12
f 1 18 13
f 13 18 19 14
f 14 19 20 15
f 15 20 21 16
f 16 21 22 17
f 17 22 12
f 1 23 18
f 18 23 24 19
f 19 24 25 20
f 20 25 26 21
f 21 26 27 22
f 22 27 12
f 1 28 23
f 23 28 29 24
f 24 29 30 25
f 25 30 31 26
f 26 31 32 27
f 27 32 12
f 1 3 28
f 28 3 5 29
f 29 5 7 30
f 30 7 9 31
f 31 9 11 32
f 32 11 12
